# xmcd CD database file
#
# Track frame offsets:
#	150
#	21222
#	40240
#	62150
#	86368
#	102100
#	120847
#	142437
#	164428
#	184325
#	205240
#	226713
#	252282
#	272102
#	296540
#
# Disc length: 4244 seconds
#
# Revision: 0
# Processed by: cddbd v1.5.2PL0 Copyright (c) Steve Scherf et al.
# Submitted via: CD2WAV32(JP) R3.22
#
DISCID=d410920f
DTITLE=すぎもとまさと - かもめの街
DYEAR=2000
DGENRE=未定義 [160]
TTITLE0=トーキョー・トワイライト
TTITLE1=Only you～魂をこめて～
TTITLE2=なんや知らんけど
TTITLE3=惚れた女が死んだ夜は
TTITLE4=愛は夜ひらく
TTITLE5=ナオコからの手紙
TTITLE6=抱いてみたいだけ
TTITLE7=ベサメムーチョ
TTITLE8=かもめの街
TTITLE9=生きる
TTITLE10=五月雨ワルツ
TTITLE11=Be mine again
TTITLE12=愛してごめんよ
TTITLE13=どうかーつ！
TTITLE14=花のように鳥のように
EXTD=
EXTT0=
EXTT1=
EXTT2=
EXTT3=
EXTT4=
EXTT5=
EXTT6=
EXTT7=
EXTT8=
EXTT9=
EXTT10=
EXTT11=
EXTT12=
EXTT13=
EXTT14=
PLAYORDER=
